<mxfile host="app.diagrams.net" modified="2023-02-16T08:27:01.411Z" agent="5.0 (Windows NT 10.0; Win64; x64) AppleWebKit/537.36 (KHTML, like Gecko) Chrome/110.0.0.0 Safari/537.36" etag="4bRfLdAjRiUFeVOh1lFG" version="20.8.20" type="github">
  <diagram id="C5RBs43oDa-KdzZeNtuy" name="Page-1">
    <mxGraphModel dx="1434" dy="796" grid="1" gridSize="10" guides="1" tooltips="1" connect="1" arrows="1" fold="1" page="1" pageScale="1" pageWidth="827" pageHeight="1169" math="0" shadow="0">
      <root>
        <mxCell id="WIyWlLk6GJQsqaUBKTNV-0" />
        <mxCell id="WIyWlLk6GJQsqaUBKTNV-1" parent="WIyWlLk6GJQsqaUBKTNV-0" />
        <mxCell id="VLjgrFqwBtLTUm6qEqMQ-0" value="START" style="ellipse;whiteSpace=wrap;html=1;" vertex="1" parent="WIyWlLk6GJQsqaUBKTNV-1">
          <mxGeometry x="310" y="150" width="120" height="80" as="geometry" />
        </mxCell>
        <mxCell id="VLjgrFqwBtLTUm6qEqMQ-1" value="POBIERZ WARTOŚĆ A" style="rounded=0;whiteSpace=wrap;html=1;" vertex="1" parent="WIyWlLk6GJQsqaUBKTNV-1">
          <mxGeometry x="310" y="270" width="120" height="60" as="geometry" />
        </mxCell>
        <mxCell id="VLjgrFqwBtLTUm6qEqMQ-19" value="TAK" style="edgeStyle=orthogonalEdgeStyle;rounded=0;orthogonalLoop=1;jettySize=auto;html=1;" edge="1" parent="WIyWlLk6GJQsqaUBKTNV-1" source="VLjgrFqwBtLTUm6qEqMQ-17" target="VLjgrFqwBtLTUm6qEqMQ-18">
          <mxGeometry relative="1" as="geometry" />
        </mxCell>
        <mxCell id="VLjgrFqwBtLTUm6qEqMQ-17" value="A&amp;lt;0" style="rhombus;whiteSpace=wrap;html=1;rounded=0;" vertex="1" parent="WIyWlLk6GJQsqaUBKTNV-1">
          <mxGeometry x="330" y="380" width="80" height="80" as="geometry" />
        </mxCell>
        <mxCell id="VLjgrFqwBtLTUm6qEqMQ-18" value="WYSWIETL A*(-1)" style="whiteSpace=wrap;html=1;rounded=0;" vertex="1" parent="WIyWlLk6GJQsqaUBKTNV-1">
          <mxGeometry x="470" y="390" width="120" height="60" as="geometry" />
        </mxCell>
        <mxCell id="VLjgrFqwBtLTUm6qEqMQ-20" value="WYSWIETL A" style="whiteSpace=wrap;html=1;rounded=0;" vertex="1" parent="WIyWlLk6GJQsqaUBKTNV-1">
          <mxGeometry x="120" y="390" width="120" height="60" as="geometry" />
        </mxCell>
        <mxCell id="VLjgrFqwBtLTUm6qEqMQ-21" value="NIE" style="endArrow=classic;html=1;rounded=0;" edge="1" parent="WIyWlLk6GJQsqaUBKTNV-1" source="VLjgrFqwBtLTUm6qEqMQ-17" target="VLjgrFqwBtLTUm6qEqMQ-20">
          <mxGeometry relative="1" as="geometry">
            <mxPoint x="320" y="440" as="sourcePoint" />
            <mxPoint x="460" y="400" as="targetPoint" />
            <Array as="points">
              <mxPoint x="320" y="420" />
            </Array>
          </mxGeometry>
        </mxCell>
        <mxCell id="VLjgrFqwBtLTUm6qEqMQ-22" value="NIE" style="edgeLabel;resizable=0;html=1;align=center;verticalAlign=middle;" connectable="0" vertex="1" parent="VLjgrFqwBtLTUm6qEqMQ-21">
          <mxGeometry relative="1" as="geometry" />
        </mxCell>
        <mxCell id="VLjgrFqwBtLTUm6qEqMQ-28" value="" style="endArrow=classic;html=1;rounded=0;" edge="1" parent="WIyWlLk6GJQsqaUBKTNV-1" source="VLjgrFqwBtLTUm6qEqMQ-1" target="VLjgrFqwBtLTUm6qEqMQ-17">
          <mxGeometry relative="1" as="geometry">
            <mxPoint x="350" y="350" as="sourcePoint" />
            <mxPoint x="450" y="350" as="targetPoint" />
          </mxGeometry>
        </mxCell>
        <mxCell id="VLjgrFqwBtLTUm6qEqMQ-31" value="" style="endArrow=classic;html=1;rounded=0;" edge="1" parent="WIyWlLk6GJQsqaUBKTNV-1" source="VLjgrFqwBtLTUm6qEqMQ-0" target="VLjgrFqwBtLTUm6qEqMQ-1">
          <mxGeometry relative="1" as="geometry">
            <mxPoint x="370" y="240" as="sourcePoint" />
            <mxPoint x="369.5" y="270" as="targetPoint" />
          </mxGeometry>
        </mxCell>
        <mxCell id="VLjgrFqwBtLTUm6qEqMQ-33" value="STOP" style="ellipse;whiteSpace=wrap;html=1;" vertex="1" parent="WIyWlLk6GJQsqaUBKTNV-1">
          <mxGeometry x="310" y="520" width="120" height="80" as="geometry" />
        </mxCell>
        <mxCell id="VLjgrFqwBtLTUm6qEqMQ-34" value="" style="endArrow=classic;html=1;rounded=0;" edge="1" parent="WIyWlLk6GJQsqaUBKTNV-1" source="VLjgrFqwBtLTUm6qEqMQ-20" target="VLjgrFqwBtLTUm6qEqMQ-33">
          <mxGeometry relative="1" as="geometry">
            <mxPoint x="190" y="400" as="sourcePoint" />
            <mxPoint x="290" y="400" as="targetPoint" />
          </mxGeometry>
        </mxCell>
        <mxCell id="VLjgrFqwBtLTUm6qEqMQ-36" value="" style="endArrow=classic;html=1;rounded=0;" edge="1" parent="WIyWlLk6GJQsqaUBKTNV-1" source="VLjgrFqwBtLTUm6qEqMQ-18" target="VLjgrFqwBtLTUm6qEqMQ-33">
          <mxGeometry relative="1" as="geometry">
            <mxPoint x="500" y="520" as="sourcePoint" />
            <mxPoint x="340" y="540" as="targetPoint" />
          </mxGeometry>
        </mxCell>
      </root>
    </mxGraphModel>
  </diagram>
</mxfile>
